<svg width="680" height="400" viewBox="0 0 680 400" role="img" aria-label="Lista de clientes" xmlns="http://www.w3.org/2000/svg">
<defs>
<linearGradient id="cl-frontG" x1="0" y1="0" x2="0" y2="1"><stop offset="0" stop-color="#b39bff"/><stop offset="1" stop-color="#6d4ddb"/></linearGradient>
<linearGradient id="cl-frontHead" x1="0" y1="0" x2="1" y2="1"><stop offset="0" stop-color="#cebffc"/><stop offset="1" stop-color="#8b6dff"/></linearGradient>
<linearGradient id="cl-backG" x1="0" y1="0" x2="0" y2="1"><stop offset="0" stop-color="#3a456e"/><stop offset="1" stop-color="#1b2342"/></linearGradient>
<linearGradient id="cl-backHead" x1="0" y1="0" x2="1" y2="1"><stop offset="0" stop-color="#4a577f"/><stop offset="1" stop-color="#232b4e"/></linearGradient>
</defs>
<circle cx="470" cy="108" r="80" fill="#7c5cfc" opacity="0.06"/>
<ellipse cx="340" cy="306" rx="140" ry="18" fill="#10142a" opacity="0.18"/>
<g>
<path d="M224 266 C224 174 328 174 328 266 Z" fill="url(#cl-backG)"/>
<circle cx="276" cy="164" r="29" fill="url(#cl-backHead)"/>
<ellipse cx="267" cy="155" rx="7" ry="5" fill="#ffffff" opacity="0.18"/>
</g>
<g>
<path d="M352 266 C352 174 456 174 456 266 Z" fill="url(#cl-backG)"/>
<circle cx="404" cy="164" r="29" fill="url(#cl-backHead)"/>
<ellipse cx="395" cy="155" rx="7" ry="5" fill="#ffffff" opacity="0.18"/>
</g>
<g>
<path d="M272 262 C272 156 408 156 408 262 Z" fill="url(#cl-frontG)"/>
<path d="M280 210 C292 176 320 168 338 168" fill="none" stroke="#ffffff" stroke-width="4" stroke-linecap="round" opacity="0.16"/>
<circle cx="340" cy="150" r="37" fill="url(#cl-frontHead)"/>
<ellipse cx="327" cy="138" rx="10" ry="7" fill="#ffffff" opacity="0.3"/>
</g>
</svg>
