<svg width="680" height="400" viewBox="0 0 680 400" role="img" aria-label="Lápiz anotando en una libreta" xmlns="http://www.w3.org/2000/svg">
<defs>
<linearGradient id="coverG" x1="0" y1="0" x2="1" y2="1"><stop offset="0" stop-color="#2a335a"/><stop offset="1" stop-color="#141a33"/></linearGradient>
<linearGradient id="pageG" x1="0" y1="0" x2="0.4" y2="1"><stop offset="0" stop-color="#f1edff"/><stop offset="1" stop-color="#d3c7f7"/></linearGradient>
<linearGradient id="pencilG" x1="0" y1="0" x2="0" y2="1"><stop offset="0" stop-color="#b39bff"/><stop offset="1" stop-color="#5b46c9"/></linearGradient>
<linearGradient id="woodG" x1="0" y1="0" x2="0" y2="1"><stop offset="0" stop-color="#ece2ff"/><stop offset="1" stop-color="#c4b1ec"/></linearGradient>
<linearGradient id="metalG" x1="0" y1="0" x2="0" y2="1"><stop offset="0" stop-color="#eef0f6"/><stop offset="1" stop-color="#a8aec2"/></linearGradient>
<linearGradient id="eraserG" x1="0" y1="0" x2="0" y2="1"><stop offset="0" stop-color="#dccffa"/><stop offset="1" stop-color="#a98cff"/></linearGradient>
</defs>
<circle cx="470" cy="105" r="80" fill="#7c5cfc" opacity="0.06"/>
<ellipse cx="322" cy="318" rx="132" ry="16" fill="#10142a" opacity="0.18"/>
<g transform="rotate(-4 320 210)">
<rect x="214" y="128" width="234" height="176" rx="16" fill="url(#coverG)"/>
<rect x="206" y="118" width="234" height="176" rx="14" fill="url(#pageG)"/>
<rect x="214" y="126" width="120" height="60" rx="12" fill="#ffffff" opacity="0.25"/>
<g fill="url(#metalG)">
<rect x="228" y="106" width="8" height="26" rx="4"/>
<rect x="264" y="106" width="8" height="26" rx="4"/>
<rect x="300" y="106" width="8" height="26" rx="4"/>
<rect x="336" y="106" width="8" height="26" rx="4"/>
<rect x="372" y="106" width="8" height="26" rx="4"/>
<rect x="408" y="106" width="8" height="26" rx="4"/>
</g>
<g fill="#b9a9e8">
<rect x="236" y="170" width="176" height="8" rx="4"/>
<rect x="236" y="202" width="176" height="8" rx="4"/>
<rect x="236" y="234" width="104" height="8" rx="4"/>
</g>
</g>
<g transform="translate(353 247) rotate(-35)" opacity="0.18">
<rect x="-2" y="-12" width="190" height="24" rx="12" fill="#0c1024"/>
</g>
<g transform="translate(350 242) rotate(-35)">
<polygon points="0,0 16,-7 16,7" fill="#2a2752"/>
<polygon points="16,-7 16,7 40,8 40,-8" fill="url(#woodG)"/>
<rect x="40" y="-11" width="112" height="22" rx="4" fill="url(#pencilG)"/>
<rect x="42" y="-9" width="108" height="4" rx="2" fill="#ffffff" opacity="0.22"/>
<rect x="152" y="-11" width="16" height="22" fill="url(#metalG)"/>
<rect x="160" y="-11" width="3" height="22" fill="#7e8499" opacity="0.5"/>
<rect x="168" y="-11" width="18" height="22" rx="9" fill="url(#eraserG)"/>
</g>
</svg>
