<svg width="680" height="400" viewBox="0 0 680 400" role="img" aria-label="Reloj 3D suave" xmlns="http://www.w3.org/2000/svg">
<defs>
<linearGradient id="bezG" x1="0" y1="0" x2="1" y2="1"><stop offset="0" stop-color="#8a6dff"/><stop offset="0.55" stop-color="#5b46c9"/><stop offset="1" stop-color="#1b2447"/></linearGradient>
<radialGradient id="faceG" cx="0.4" cy="0.34" r="0.82"><stop offset="0" stop-color="#36426f"/><stop offset="1" stop-color="#151c37"/></radialGradient>
<linearGradient id="handG" x1="0" y1="0" x2="1" y2="0"><stop offset="0" stop-color="#e3dcff"/><stop offset="1" stop-color="#9d85ff"/></linearGradient>
<linearGradient id="capG" x1="0" y1="0" x2="1" y2="1"><stop offset="0" stop-color="#c4b5fd"/><stop offset="1" stop-color="#6d4ddb"/></linearGradient>
</defs>
<circle cx="470" cy="120" r="90" fill="#7c5cfc" opacity="0.07"/>
<ellipse cx="345" cy="346" rx="112" ry="18" fill="#10142a" opacity="0.2"/>
<circle cx="340" cy="200" r="120" fill="url(#bezG)"/>
<path d="M248 118 A111 111 0 0 1 432 106" fill="none" stroke="#ffffff" stroke-width="7" stroke-linecap="round" opacity="0.16"/>
<circle cx="340" cy="200" r="97" fill="url(#faceG)"/>
<circle cx="340" cy="200" r="94" fill="none" stroke="#0e1430" stroke-width="5" opacity="0.35"/>
<g transform="translate(340 200)" fill="#b8a4ff">
<rect transform="rotate(0)" x="-2" y="-90" width="4" height="14" rx="2" fill="#d6ccfb"/>
<rect transform="rotate(30)" x="-1.8" y="-88" width="3.6" height="10" rx="1.8"/>
<rect transform="rotate(60)" x="-1.8" y="-88" width="3.6" height="10" rx="1.8"/>
<rect transform="rotate(90)" x="-2" y="-90" width="4" height="14" rx="2" fill="#d6ccfb"/>
<rect transform="rotate(120)" x="-1.8" y="-88" width="3.6" height="10" rx="1.8"/>
<rect transform="rotate(150)" x="-1.8" y="-88" width="3.6" height="10" rx="1.8"/>
<rect transform="rotate(180)" x="-2" y="-90" width="4" height="14" rx="2" fill="#d6ccfb"/>
<rect transform="rotate(210)" x="-1.8" y="-88" width="3.6" height="10" rx="1.8"/>
<rect transform="rotate(240)" x="-1.8" y="-88" width="3.6" height="10" rx="1.8"/>
<rect transform="rotate(270)" x="-2" y="-90" width="4" height="14" rx="2" fill="#d6ccfb"/>
<rect transform="rotate(300)" x="-1.8" y="-88" width="3.6" height="10" rx="1.8"/>
<rect transform="rotate(330)" x="-1.8" y="-88" width="3.6" height="10" rx="1.8"/>
</g>
<g transform="translate(343 204)" opacity="0.22" fill="#0d1228">
<rect transform="rotate(-55)" x="-4" y="-55" width="8" height="64" rx="4"/>
<rect transform="rotate(60)" x="-3" y="-78" width="6" height="90" rx="3"/>
</g>
<g transform="translate(340 200)">
<rect transform="rotate(-55)" x="-4" y="-55" width="8" height="64" rx="4" fill="url(#handG)"/>
<rect transform="rotate(60)" x="-3" y="-78" width="6" height="90" rx="3" fill="url(#handG)"/>
</g>
<circle cx="340" cy="200" r="9" fill="url(#capG)"/>
<circle cx="337" cy="197" r="3" fill="#ffffff" opacity="0.4"/>
</svg>
