<svg width="680" height="400" viewBox="0 0 680 400" role="img" aria-label="Herramientas de reparación" xmlns="http://www.w3.org/2000/svg">
<defs>
<linearGradient id="plateG" x1="0" y1="0" x2="1" y2="1"><stop offset="0" stop-color="#2c365e"/><stop offset="1" stop-color="#141a33"/></linearGradient>
<linearGradient id="wrenchG" x1="0" y1="0" x2="1" y2="1"><stop offset="0" stop-color="#d3c4ff"/><stop offset="1" stop-color="#6d4ddb"/></linearGradient>
<linearGradient id="handleG" x1="0" y1="0" x2="1" y2="0"><stop offset="0" stop-color="#8b78f0"/><stop offset="1" stop-color="#4c3fb0"/></linearGradient>
<linearGradient id="shaftG" x1="0" y1="0" x2="1" y2="0"><stop offset="0" stop-color="#e6e9f2"/><stop offset="1" stop-color="#aab0c4"/></linearGradient>
</defs>
<circle cx="470" cy="110" r="80" fill="#7c5cfc" opacity="0.06"/>
<ellipse cx="342" cy="306" rx="98" ry="16" fill="#10142a" opacity="0.2"/>
<rect x="250" y="110" width="180" height="180" rx="38" fill="url(#plateG)"/>
<rect x="262" y="122" width="78" height="78" rx="22" fill="#ffffff" opacity="0.05"/>
<g transform="translate(345 206)" opacity="0.22" fill="#0c1024">
<g transform="rotate(-35)"><path d="M-18 -30 L-18 -50 Q-18 -60 -8 -60 L-6 -60 L0 -43 L6 -60 L8 -60 Q18 -60 18 -50 L18 -30 Z"/><rect x="-7" y="-32" width="14" height="88" rx="7"/></g>
<g transform="rotate(35)"><rect x="-11" y="-60" width="22" height="36" rx="8"/><rect x="-4" y="-16" width="8" height="68"/><polygon points="-4,52 4,52 6,64 -6,64"/></g>
</g>
<g transform="translate(340 200)">
<g transform="rotate(-35)">
<path d="M-18 -30 L-18 -50 Q-18 -60 -8 -60 L-6 -60 L0 -43 L6 -60 L8 -60 Q18 -60 18 -50 L18 -30 Z" fill="url(#wrenchG)"/>
<rect x="-7" y="-32" width="14" height="88" rx="7" fill="url(#wrenchG)"/>
<rect x="-4.5" y="-30" width="3" height="82" rx="1.5" fill="#ffffff" opacity="0.18"/>
</g>
<g transform="rotate(35)">
<rect x="-11" y="-60" width="22" height="36" rx="8" fill="url(#handleG)"/>
<rect x="-9" y="-57" width="4" height="30" rx="2" fill="#ffffff" opacity="0.2"/>
<rect x="-6" y="-24" width="12" height="8" fill="#2a2752"/>
<rect x="-4" y="-16" width="8" height="68" fill="url(#shaftG)"/>
<polygon points="-4,52 4,52 6,64 -6,64" fill="#8f95a8"/>
</g>
</g>
<polygon points="446,142 448.25,148.75 455,151 448.25,153.25 446,160 443.75,153.25 437,151 443.75,148.75" fill="#c4b5fd" opacity="0.8"/>
</svg>
