<svg width="680" height="400" viewBox="0 0 680 400" role="img" aria-label="Total de ventas del mes" xmlns="http://www.w3.org/2000/svg">
<defs>
<linearGradient id="barDark" x1="0" y1="0" x2="0" y2="1"><stop offset="0" stop-color="#3a456e"/><stop offset="1" stop-color="#1b2342"/></linearGradient>
<linearGradient id="barViolet" x1="0" y1="0" x2="0" y2="1"><stop offset="0" stop-color="#a98cff"/><stop offset="1" stop-color="#6d4ddb"/></linearGradient>
<linearGradient id="coinTop" x1="0" y1="0" x2="1" y2="1"><stop offset="0" stop-color="#d6ccfb"/><stop offset="1" stop-color="#9d85ff"/></linearGradient>
<linearGradient id="coinSide" x1="0" y1="0" x2="0" y2="1"><stop offset="0" stop-color="#6d4ddb"/><stop offset="1" stop-color="#4733a0"/></linearGradient>
</defs>
<circle cx="470" cy="110" r="80" fill="#7c5cfc" opacity="0.06"/>
<ellipse cx="340" cy="312" rx="132" ry="14" fill="#10142a" opacity="0.18"/>
<g>
<rect x="221" y="230" width="46" height="70" rx="8" fill="url(#barDark)"/>
<rect x="226" y="236" width="6" height="56" rx="3" fill="#ffffff" opacity="0.13"/>
<rect x="285" y="190" width="46" height="110" rx="8" fill="url(#barDark)"/>
<rect x="290" y="196" width="6" height="96" rx="3" fill="#ffffff" opacity="0.13"/>
<rect x="349" y="150" width="46" height="150" rx="8" fill="url(#barDark)"/>
<rect x="354" y="156" width="6" height="136" rx="3" fill="#ffffff" opacity="0.13"/>
<rect x="413" y="105" width="46" height="195" rx="8" fill="url(#barViolet)"/>
<rect x="418" y="111" width="6" height="181" rx="3" fill="#ffffff" opacity="0.2"/>
</g>
<polyline points="215,240 244,224 308,184 372,144 436,100 458,84" fill="none" stroke="#c4b5fd" stroke-width="5" stroke-linecap="round" stroke-linejoin="round"/>
<path d="M444 84 L460 80 L457 97" fill="none" stroke="#c4b5fd" stroke-width="5" stroke-linecap="round" stroke-linejoin="round"/>
<ellipse cx="250" cy="160" rx="20" ry="14" fill="url(#coinSide)"/>
<rect x="230" y="146" width="40" height="14" fill="url(#coinSide)"/>
<ellipse cx="250" cy="146" rx="20" ry="14" fill="url(#coinTop)"/>
<ellipse cx="250" cy="146" rx="12" ry="8" fill="none" stroke="#6d4ddb" stroke-width="2" opacity="0.4"/>
<ellipse cx="245" cy="142" rx="4" ry="2.5" fill="#ffffff" opacity="0.45"/>
</svg>
